<svg width="26" height="27" viewBox="0 0 26 27" fill="none" xmlns="http://www.w3.org/2000/svg">
<path d="M24.2359 18.9714H7.95273L8.77031 17.0563L22.3547 17.028C22.8141 17.028 23.2078 16.6507 23.2898 16.1287L25.1711 4.01912C25.2203 3.70152 25.1465 3.37449 24.966 3.12607C24.8768 3.00382 24.7656 2.90533 24.64 2.83746C24.5144 2.76959 24.3774 2.73394 24.2387 2.73301L6.95742 2.66697L6.80977 1.86826C6.7168 1.35885 6.31758 0.987793 5.86367 0.987793H1.63906C1.38307 0.987793 1.13756 1.10474 0.956539 1.31291C0.775522 1.52108 0.673828 1.80342 0.673828 2.09781C0.673828 2.39221 0.775522 2.67455 0.956539 2.88271C1.13756 3.09088 1.38307 3.20783 1.63906 3.20783H5.08164L5.72695 6.736L7.31562 15.5816L5.27031 19.421C5.1641 19.5859 5.10012 19.7817 5.08562 19.9862C5.07113 20.1907 5.10669 20.3958 5.18828 20.5782C5.35234 20.9524 5.6832 21.1883 6.04961 21.1883H7.7668C7.40071 21.7474 7.20298 22.4285 7.20352 23.1284C7.20352 24.9082 8.46133 26.3547 10.009 26.3547C11.5566 26.3547 12.8145 24.9082 12.8145 23.1284C12.8145 22.4272 12.6121 21.7448 12.2512 21.1883H16.6562C16.2902 21.7474 16.0924 22.4285 16.093 23.1284C16.093 24.9082 17.3508 26.3547 18.8984 26.3547C20.4461 26.3547 21.7039 24.9082 21.7039 23.1284C21.7039 22.4272 21.5016 21.7448 21.1406 21.1883H24.2387C24.7691 21.1883 25.2039 20.6914 25.2039 20.0782C25.2023 19.7842 25.0997 19.5027 24.9183 19.2954C24.737 19.088 24.4917 18.9715 24.2359 18.9714ZM7.35938 4.85557L23.1039 4.91531L21.5617 14.8457L9.19414 14.8709L7.35938 4.85557ZM10.009 24.1221C9.5332 24.1221 9.14492 23.6756 9.14492 23.1284C9.14492 22.5813 9.5332 22.1348 10.009 22.1348C10.4848 22.1348 10.873 22.5813 10.873 23.1284C10.873 23.392 10.782 23.6447 10.62 23.8311C10.4579 24.0174 10.2381 24.1221 10.009 24.1221ZM18.8984 24.1221C18.4227 24.1221 18.0344 23.6756 18.0344 23.1284C18.0344 22.5813 18.4227 22.1348 18.8984 22.1348C19.3742 22.1348 19.7625 22.5813 19.7625 23.1284C19.7625 23.392 19.6715 23.6447 19.5094 23.8311C19.3474 24.0174 19.1276 24.1221 18.8984 24.1221Z" fill="black"/>
</svg>
