<svg width="24" height="22" viewBox="0 0 24 22" fill="none" xmlns="http://www.w3.org/2000/svg">
<path d="M21.333 10.9999V4.2916H23.6663V12.3416H21.333M21.333 17.7083H23.6663V15.0249H21.333M9.66634 12.3416C12.7813 12.3416 18.9997 14.1394 18.9997 17.7083V21.7333H0.333008V17.7083C0.333008 14.1394 6.55134 12.3416 9.66634 12.3416ZM9.66634 0.266602C10.904 0.266602 12.091 0.832016 12.9662 1.83846C13.8413 2.84491 14.333 4.20994 14.333 5.63327C14.333 7.0566 13.8413 8.42163 12.9662 9.42807C12.091 10.4345 10.904 10.9999 9.66634 10.9999C8.42867 10.9999 7.24168 10.4345 6.36651 9.42807C5.49134 8.42163 4.99967 7.0566 4.99967 5.63327C4.99967 4.20994 5.49134 2.84491 6.36651 1.83846C7.24168 0.832016 8.42867 0.266602 9.66634 0.266602ZM9.66634 14.8908C6.20134 14.8908 2.54967 16.8496 2.54967 17.7083V19.1841H16.783V17.7083C16.783 16.8496 13.1313 14.8908 9.66634 14.8908ZM9.66634 2.81577C9.01656 2.81577 8.39339 3.11261 7.93393 3.64099C7.47447 4.16938 7.21634 4.88602 7.21634 5.63327C7.21634 6.38051 7.47447 7.09716 7.93393 7.62554C8.39339 8.15392 9.01656 8.45077 9.66634 8.45077C10.3161 8.45077 10.9393 8.15392 11.3988 7.62554C11.8582 7.09716 12.1163 6.38051 12.1163 5.63327C12.1163 4.88602 11.8582 4.16938 11.3988 3.64099C10.9393 3.11261 10.3161 2.81577 9.66634 2.81577Z" fill="black"/>
</svg>
